# xmcd CD database file
#
# Track frame offsets:
#	150
#	22813
#	40625
#
# Disc length: 844 seconds
#
# Revision: 0
# Processed by: cddbd v1.5PL3 Copyright (c) Steve Scherf et al.
# Submitted via: CDex 1.50
#
DISCID=13034a03
DTITLE=AMBIENCE - BACK TO YOU
DYEAR=1996
DGENRE=J ポップ
TTITLE0=BACK TO YOU
TTITLE1=抱きしめたい 誰よりも...
TTITLE2=BACK TO YOU KARAOKE
EXTD=YEAR: 1996
EXTT0=
EXTT1=
EXTT2=
PLAYORDER=
